<?xml version="1.0" encoding="utf-8"?>
<!-- Generator: Adobe Illustrator 22.1.0, SVG Export Plug-In . SVG Version: 6.00 Build 0)  -->
<svg version="1.1" id="Layer_1" xmlns="http://www.w3.org/2000/svg" xmlns:xlink="http://www.w3.org/1999/xlink" x="0px" y="0px"
	 viewBox="0 0 63 63" style="enable-background:new 0 0 63 63;" xml:space="preserve">
<style type="text/css">
	.st0{fill:#FFFFFF;stroke:#000000;stroke-width:2;stroke-miterlimit:10;}
</style>
<path d="M47,60.5H3.7c-0.7,0-1.2-0.6-1.2-1.2V3.7C2.5,3,3,2.5,3.7,2.5h2.5c0.7,0,1.2-0.6,1.2-1.2S6.8,0,6.2,0H3.7C1.7,0,0,1.7,0,3.7
	v55.6c0,2,1.7,3.7,3.7,3.7H47c0.7,0,1.2-0.6,1.2-1.2S47.7,60.5,47,60.5z"/>
<path d="M59.3,0H16c-0.7,0-1.2,0.6-1.2,1.2s0.6,1.2,1.2,1.2h43.3c0.7,0,1.2,0.6,1.2,1.2v55.6c0,0.7-0.6,1.2-1.2,1.2h-2.5
	c-0.7,0-1.2,0.6-1.2,1.2s0.6,1.2,1.2,1.2h2.5c2,0,3.7-1.7,3.7-3.7V3.7C63,1.7,61.3,0,59.3,0z"/>
<path d="M11.1,2.5c0.7,0,1.2-0.6,1.2-1.2S11.8,0,11.1,0l0,0c-0.7,0-1.2,0.6-1.2,1.2S10.4,2.5,11.1,2.5z"/>
<path d="M51.9,60.5L51.9,60.5c-0.7,0-1.2,0.6-1.2,1.2s0.6,1.2,1.2,1.2s1.2-0.6,1.2-1.2S52.6,60.5,51.9,60.5z"/>
<g>
	<g>
		<path class="st0" d="M23,35.2c-1.8,0-3.2,1.1-3.4,2.9c-0.2,1.7-0.4,2.8-3.1,2.8c-2.6,0-3.5-1-3.5-3.7V25.4c0-3.1,1.2-3.6,3.3-3.6
			c2.2,0,3.1,0.7,3.2,2.6c0,0,0,0,0,0c0.1,1.5,1.2,3,3.4,3c1,0,3.4-0.4,3.4-3.7c0-4.2-3.4-8.5-10-8.5c-6.3,0-10.2,3.9-10.2,10.3
			v11.8c0,6.5,3.8,10.3,10.1,10.3c6.7,0,10.1-4.3,10.1-8.6C26.4,35.6,24,35.2,23,35.2z"/>
	</g>
</g>
<g>
	<g>
		<path class="st0" d="M53.8,29.6c1.6,0,3-1.4,3-3.1c0-1.7-1.4-3.1-3.1-3.1h-1.2l0.6-3.9c0-0.1,0-0.2,0-0.3c0-1.9-1.5-3.3-3.4-3.3
			c-1.5,0-2.8,0.9-3.1,2.3c0,0,0,0.1,0,0.1l-0.8,5.2h-2.2l0.6-3.9c0-0.1,0-0.2,0-0.3c0-1.9-1.5-3.3-3.4-3.3c-1.5,0-2.8,0.9-3.1,2.3
			c0,0,0,0.1,0,0.1L37,23.4h-2.4c-1.6,0-2.9,1.4-2.9,3.1c0,1.8,1.3,3.1,3.1,3.1h1.2l-0.3,1.8h-2.3c-1.6,0-2.9,1.4-2.9,3.2
			c0,1.8,1.3,3.1,3.1,3.1h1.1l-0.7,4.8c0,0.1,0,0.2,0,0.3c0,1.8,1.5,3.3,3.3,3.3c1.4,0,2.9-0.9,3.2-2.6l0.9-5.7h2.1l-0.7,4.8
			c0,0.1,0,0.2,0,0.3c0,1.8,1.5,3.3,3.3,3.3c1.5,0,2.8-1,3.2-2.4c0-0.1,0-0.1,0-0.2l0.9-5.8h2.4c1.6,0,3-1.4,3-3.1
			c0-1.7-1.4-3.2-3.1-3.2h-1.2l0.3-1.8L53.8,29.6L53.8,29.6z M44.5,31.4h-2.2l0.3-1.8h2.2L44.5,31.4z"/>
	</g>
</g>
</svg>
